<?xml version="1.0" encoding="iso-8859-1"?>
<!-- Uploaded to: SVG Repo, www.svgrepo.com, Generator: SVG Repo Mixer Tools -->
<svg height="800px" width="800px" version="1.1" id="Layer_1" xmlns="http://www.w3.org/2000/svg" xmlns:xlink="http://www.w3.org/1999/xlink" 
	 viewBox="0 0 281.963 281.963" xml:space="preserve">
<g>
	<path style="fill:#1D1D1B;" d="M157.203,83.341c-0.482,0.804-2.411-5.144-2.733-6.229c0-0.04-0.04-0.121-0.04-0.161
		c-0.281-1.326,1.527-2.17,2.492-1.246c3.255,3.175,4.139,5.304,3.898-0.08c0-0.764,0.683-1.447,1.447-1.487
		c0,0.08,3.094,0.683,2.853,0.723c1.085-0.201,2.049-1.165,3.175-1.648c0.723-0.321,3.054-0.964,3.536-1.205
		c5.023-2.451,10.529-6.59,16.195-6.55c-0.844-1.447-1.406-3.094-1.406-4.822c0.04-1.607,0.482-3.054,1.206-4.38
		c-20.093-9.202-51.397,3.255-45.49,29.054c0.04,0.161,0,0.321,0,0.482c1.165,3.094,2.371,6.189,3.697,9.243
		c1.728-2.612,3.858-4.621,6.47-6.832C153.907,87.038,156.68,85.35,157.203,83.341z M255.617,53.563
		c19.771,7.394,33.836,28.331,22.022,51.438c-0.442,0.884-1.527,0.884-2.25,0.442c-3.134-0.442-9.765-1.206-11.051-4.3
		c-0.643-1.366,0.482-3.818,0.723-5.144c0.322-1.648,0.482-3.255,0.643-4.903c-1.447,2.572-2.773,5.224-4.019,7.957
		c-0.603,1.326-2.773,0.924-3.094-0.402c-0.201-0.965-0.362-1.889-0.482-2.813c-0.563,0.321-1.165,0.563-1.808,0.643
		c-1.889,0.161-2.17-0.964-3.617-1.206c-2.451-0.442-4.38,0.121-6.349-0.563c2.13,4.461,3.577,9.243,4.059,14.226
		c2.411,23.428-15.512,34.037-36.931,32.43c-1.527-0.121-1.969-1.808-1.326-2.733c-1.487-4.019-2.049-7.475-2.371-11.774
		c-0.08-0.964,0.884-1.728,1.768-1.768c4.943-0.161,8.64-0.763,12.498-2.17c-4.501-0.723-9.002-1.567-13.462-2.813
		c-2.17-0.603-1.447-3.416,0.522-3.657c8.118-1.045,1.045-0.643-0.12-4.059c-0.522-1.487,0.442-2.371,0.402-3.737
		c-0.08-4.22,0.482-3.737-0.683-9.082c-1.246-5.787-2.612-11.774-2.21-18.244c-2.13,0.764-4.541,0.563-6.51-0.522
		c-6.309,18.526-11.654,37.252-15.512,56.421c-3.938,19.49-4.42,36.047-3.255,54.492c35.323,10.046,61.966,43.923,68.275,79.326
		c0.161,0.924-0.281,1.607-0.884,1.969c-0.121,0.643-0.563,1.206-1.407,1.206c-70.365,2.532-142.177,0.723-212.462-3.014
		c-1.366-0.08-1.607-1.768-0.683-2.331c0.603-30.782,34.359-58.229,60.479-67.994c0.763-0.322,1.406-0.08,1.808,0.402
		c0.121-5.425,0.482-10.609,0.563-14.828c0.04-0.764,0.04-1.567,0.08-2.331c-0.482-0.402-0.442-1.125,0-1.487
		c0.723-34.761,1.889-70.687-23.509-97.973c-0.844,0.763-1.768,1.487-2.813,1.929c0,0.04,0.04,0.08,0.04,0.121
		c-0.281,2.853-0.08,4.702,1.728,6.952c0.482,0.603,0.643,1.326,0.281,2.009c-1.045,1.808-2.17,3.094-0.04,4.782
		c0.924,0.764,0.362,2.451-0.723,2.692c-0.603,0.12-1.205,0.281-1.808,0.402c1.406,1.246,2.692,2.773,2.17,4.34
		c-0.522,1.527-2.572,2.09-4.581,2.371c1.487,1.045,3.014,2.331,3.617,3.697c0,0,0.04,0,0.04,0.04v0.04
		c0.161,0.402,0.241,0.804,0.201,1.246c0.402,2.331,0.844,5.264,0.121,7.193c-1.125,3.094-1.688,2.21,1.165,5.184
		c0.763,0.844,0.522,2.451-0.723,2.693c-2.612,0.522-5.144,0.844-7.676,0.924c2.813,1.406,5.706,2.693,8.68,3.898
		c0.683,0.281,1.366,1.045,1.045,1.848c-1.165,3.135-1.487,6.108-1.286,9.363c0.04,0.563-0.402,0.924-0.884,1.045
		c-0.161,0.321-0.442,0.643-0.884,0.723c-17.923,3.335-34.278-10.328-37.333-27.768c-1.728-9.725,0.603-23.388,6.992-32.832
		c-3.858-0.804-8.72-1.688-10.127,2.572c-0.482,1.487-2.291,1.607-3.175,0.402c-2.451-3.335-4.943-6.631-7.434-9.926
		c0.08,4.099,0.201,8.158,0.281,12.257c0.04,1.607-1.848,2.17-2.933,1.246c-4.983-4.219-7.957,2.893-11.614,6.59
		c-0.964,1.005-2.491,0.442-2.933-0.763c-7.313-20.253-8.84-43.842,13.262-55.013c8.439-4.3,28.291-7.917,39.462-2.17
		c0.483-14.025,7.756-27.648,21.098-33.435c11.413-4.943,27.125-3.295,35.323,6.711c0.723,0.884,0.201,2.291-0.683,2.572
		c-1.929,2.853-4.702,5.144-6.992,7.756c-1.085,1.246-2.813,0.08-2.974-1.246c-0.121-0.924-2.532-1.648-5.023-2.17
		c1.607,1.607,3.175,3.215,4.702,4.903c3.576-1.085,7.314-1.728,11.091-1.848c7.675-0.241,15.512,2.21,21.539,6.751
		c3.094-21.017,26.362-29.215,45.209-25.196c16.074,3.456,23.509,16.436,24.714,30.862c9.645-31.948,55.858-25.076,72.415,0.121
		c0.442,0.643,0.241,1.326-0.201,1.768c0,0.281-0.121,0.522-0.322,0.723c-2.692,2.652-5.586,5.144-8.278,7.796
		c-0.924,0.924-2.532,0.522-2.893-0.764c-0.683-2.492-5.304-4.139-7.394-5.224c-0.322-0.201-0.683-0.362-1.005-0.563
		c1.205,2.049,2.371,4.059,3.576,6.108c1.005,1.648-1.406,3.576-2.652,2.049c-1.246-1.487-0.764,0.563-1.406,1.607
		C256.984,52.76,256.341,53.202,255.617,53.563z M275.188,102.59c5.385-15.431,1.607-33.274-12.9-42.275
		c-14.467-9.001-29.135-4.903-44.244-0.764c0,0.884-0.08,1.768-0.362,2.612c-0.804,2.25-2.813,3.737-4.903,4.782
		c0.884,1.366,1.366,3.014,1.487,4.742c12.94,1.005,23.87,8.921,30.3,19.691c0.161-0.04,0.362-0.08,0.563-0.04
		c1.648,0.442,11.694,1.648,13.342,0.281c0.964-0.844,2.451-0.402,2.692,0.844c1.527-2.934,3.135-5.867,4.903-8.72
		c0.884-1.487,3.054-0.844,3.134,0.844c0.201,3.858-0.322,7.434-0.563,11.292c-0.241,3.496,0.04,3.898,3.335,5.345
		C273.942,102.108,274.223,102.108,275.188,102.59z M268.637,44.924c2.13-1.648,4.219-3.376,6.349-5.023
		c-9.765-10.328-20.535-19.53-35.564-19.972c-16.516-0.482-29.858,10.167-33.193,26.362c-0.08,0.362-0.322,0.522-0.603,0.643
		c-0.161,1.969-0.362,3.938-0.723,5.867c2.692-3.215,8.198-2.773,11.011,0.723c0.924,1.125,1.607,2.532,1.929,3.978
		c10.569-7.153,23.067-8.238,34.238-5.104c0.04-0.482,0.241-0.924,0.764-1.165c2.492-1.206,0.764-3.536,2.893-4.943
		c0.161-0.08,0.281-0.12,0.402-0.201c-1.447-2.451-2.934-4.943-4.42-7.394c-0.924-1.567,0.884-3.175,2.371-2.411
		c3.818,2.049,7.836,3.898,11.533,6.148C266.869,43.196,267.874,43.919,268.637,44.924z M237.011,133.814
		c10.689-6.631,11.774-19.852,8.64-30.822c-4.501-15.954-16.798-24.152-31.465-29.295c-0.241,2.009-1.045,3.938-2.451,5.465
		c0.161,0.281,0.281,0.603,0.281,1.005c-0.362,5.425,2.291,13.864,3.335,19.008c1.085,5.144-1.246,11.975,3.858,14.828
		c0.964,0.522,1.326,2.17,0.402,2.934c-0.563,0.402-1.045,0.723-1.567,1.045c4.179,0.884,8.359,1.648,12.699,2.13
		c1.688,0.201,2.813,2.612,0.965,3.536c-3.898,1.929-7.676,2.813-11.694,4.34c-6.791,2.572-7.314-0.08-5.666,10.006
		C222.062,137.953,230.18,138.034,237.011,133.814z M247.781,271.169c-8.037-36.368-31.586-61.042-64.418-76.353
		c0.241,2.934,0.482,5.947,0.723,9.002c0.884,9.926-1.567,27.688-13.181,25.036c-0.161,0.08-0.322,0.12-0.563,0.08
		c-16.757-1.005-20.374-18.285-20.053-35.886c-2.371,0.402-4.822,0.08-7.233,0.121c-2.492,0.04-4.983,0.241-7.434,0.442
		c2.29,12.216,4.541,26.844-3.697,36.649c-4.702,5.626-10.971,7.635-17.32,6.068c-0.241,0.201-0.563,0.281-0.924,0.201
		C100.5,232.39,98.29,217.963,98.33,204.26c-0.201,0.201-0.482,0.362-0.763,0.482c-14.989,5.546-28.17,14.386-38.739,26.442
		c-10.087,11.493-13.824,24.554-20.896,37.453C107.694,268.677,178.059,268.798,247.781,271.169z M214.507,61.681
		c0.924-1.728,0.402-4.099-0.563-5.626c-2.009-3.255-6.711-3.536-8.64-0.04c-0.04,0.08-0.161,0.121-0.241,0.201
		c0.804,1.407,1.286,3.094,1.206,4.903c-0.04,0.844-0.281,1.688-0.563,2.491c2.009-0.241,3.657,0.241,4.983,1.165
		C212.096,63.891,213.744,63.168,214.507,61.681z M207.234,78.599c6.189-2.09,5.546-13.301-1.889-12.136
		c-0.362,0.08-0.723,0-1.005-0.161c-0.764,1.005-1.728,1.929-2.773,2.612C200.322,72.933,201.005,80.649,207.234,78.599z
		 M197.187,67.347c3.737-0.402,6.751-4.42,5.867-8.117c-0.683-2.893-3.255-4.943-6.028-5.747c-0.161,0.121-0.362,0.161-0.563,0.201
		c-1.889,0.161-3.657,1.085-4.903,2.411c0.522,0.764-0.201,1.688-1.045,1.447c-0.643,1.125-0.964,2.451-0.764,3.818
		C190.195,64.896,193.611,67.709,197.187,67.347z M202.371,53.202c1.326-17.159-1.567-36.127-20.535-41.713
		c-17.923-5.264-38.417,3.335-42.999,21.941c0.281-0.12,0.563,0.08,0.723,0.281c0.04,0.08,0.04,0.121,0.08,0.161
		c3.335,1.447,6.671,2.692,9.926,4.3c2.492-4.742,5.546-9.162,8.921-13.342c1.045-1.326,2.853,0.121,2.572,1.487
		c-0.763,3.777-1.527,7.515-2.291,11.292c0.804-0.563,1.567-1.206,2.371-1.848c1.045-0.844,2.773,0.241,1.969,1.567
		c-0.04,0.08-0.08,0.121-0.161,0.201c0.241,0.08,0.482,0.241,0.563,0.603c0.321,1.406,0.362,2.893,0.321,4.34
		c2.17-0.482,4.3,0.161,4.782,2.893c0.04,0.12,0.04,0.643,0.08,0.964c0.12-0.201,0.683-0.402,0.804-0.402
		c0.643-0.201,1.447,0,2.009,0.321c1.125,0.603,1.808,1.768,1.567,2.933c6.068-0.08,11.855,1.447,16.356,4.943
		c1.808-1.848,4.34-3.054,7.033-3.134c0.482-0.04,0.804,0.161,1.005,0.442C199.277,51.554,200.965,52.197,202.371,53.202z
		 M198.795,79.443c0.121-0.402,0.402-0.683,0.683-0.884c-1.688-2.652-1.487-5.787-0.322-8.56c-0.884,0.281-1.768,0.482-2.692,0.482
		c-1.648,0-3.175-0.482-4.581-1.286c-2.572,3.978-4.983,7.997-7.314,12.016c1.206,0.643,2.21,1.487,3.134,2.492
		c2.692-2.813,6.912-3.898,10.649-2.934C198.513,80.327,198.634,79.885,198.795,79.443z M194.857,91.66
		c0.804-2.612,1.648-5.224,2.492-7.796c-2.933-0.522-5.505-0.04-8.238,1.407c1.246,1.728,2.451,4.099,2.25,6.269
		C192.526,91.418,193.691,91.418,194.857,91.66z M193.892,94.754c-4.943-0.321-9.082,1.567-11.935,5.546
		c0.161,0.161,0.362,0.322,0.522,0.482c1.487,1.808,3.778,4.822,3.818,7.354c1.005-0.08,1.969-0.121,2.934,0.121
		c0.322,0.08,0.522,0.241,0.643,0.442C191.16,104.037,192.486,99.375,193.892,94.754z M190.034,67.91
		c-0.08-0.08-0.161-0.161-0.241-0.241c-0.161,0.08-0.281,0.241-0.482,0.241c-3.295,0.362-11.332,5.224-14.547,6.791
		c-1.889,0.924-4.42,3.376-5.827,3.818c-0.884,0.241-4.782-0.563-4.662-0.643c-0.362,0.201-0.362,3.416-1.768,4.742
		c-0.522,0.482-1.165,0.522-1.768,0.241c-0.201-0.08-0.321-0.201-0.482-0.322c0.201,0.844,0.161,1.768-0.402,2.974
		c-2.25,5.184-10.006,7.917-12.779,13.382c-0.442,0.884-2.009,0.964-2.451,0c-0.442-1.005-0.844-2.009-1.246-3.054
		c0.964,7.113-0.482,14.185-6.389,18.847c-0.884,0.723-1.969,0.402-2.532-0.281c-5.063-2.773-9.966-5.827-14.909-8.881
		c-0.723-0.482-1.085-1.527-0.603-2.331c2.009-3.175,3.576-6.39,4.822-9.805c-3.215,2.451-6.47,4.742-9.926,6.872
		c-1.567,1.005-2.974-0.884-2.331-2.331c0.522-1.005,0.924-2.049,1.206-3.094c-4.219,1.165-4.862-2.893-8.198-6.791
		c-1.567-1.768-1.688-3.978-2.853-5.586c-1.889-2.572-7.394-5.345-10.529-7.394c-0.683,1.648-1.768,3.054-3.255,4.059
		c31.425,20.977,40.467,74.343,46.575,108.381c0.201,1.085,0.442,2.21,0.643,3.376c4.501-1.406,10.89-2.492,15.271-0.844
		c0.522-11.413,2.451-22.544,3.376-29.175C158.288,128.269,168.133,93.267,190.034,67.91z M189.351,110.627
		c-0.04,0.04-0.04,0.08-0.121,0.121c-2.853,1.085-5.706,1.085-8.479,2.692c-2.451,1.407-4.26,3.255-5.988,5.425
		c0.241,0.201,0.522,0.442,0.763,0.643c2.21,2.009,5.184,4.983,6.189,8.037c1.206-0.322,2.411-0.563,3.576-0.442
		C186.538,121.598,187.904,116.092,189.351,110.627z M188.829,91.981c-0.844-1.688-1.005-3.697-2.049-5.385
		c-0.804-1.406-2.009-2.572-3.255-3.617c-2.492,4.38-4.863,8.76-7.073,13.221c1.487,0.683,2.813,1.607,4.059,2.693
		C182.118,95.517,185.292,93.026,188.829,91.981z M180.872,148.924c1.045-6.229,2.291-12.417,3.617-18.566
		c-2.371,0.683-4.782,1.045-7.033,2.331c-2.893,1.648-5.184,3.898-7.113,6.55c0.281,0.281,0.563,0.563,0.804,0.844
		c1.728,2.049,3.094,4.38,4.3,6.751c0.563,1.165,1.165,2.17,1.447,3.255C178.22,149.527,179.546,149.045,180.872,148.924z
		 M183.404,108.819c-1.206-1.768-1.808-4.139-3.054-5.907c-1.326-1.889-3.014-3.496-4.702-5.063
		c-2.693,5.505-5.224,11.091-7.394,16.878c1.849,0.723,3.576,1.808,5.144,3.054C175.246,114.123,179.184,110.386,183.404,108.819z
		 M168.455,225.518c12.618,1.969,13.422-9.604,12.096-20.374c-3.697,1.125-7.233,2.09-10.609,4.3
		c-4.099,2.652-7.274,6.148-9.725,10.328c0,0.04-0.04,0.04-0.08,0.08C162.266,222.665,164.999,224.634,168.455,225.518z
		 M177.938,170.946c0.442-6.108,1.286-12.216,2.29-18.285c-2.371,0.884-4.903,1.527-7.113,2.974
		c-3.335,2.13-5.948,4.983-8.077,8.278c0.563,0.522,1.085,1.085,1.607,1.688c1.607,1.889,4.541,5.465,4.3,8.318
		C173.116,172.393,175.487,171.267,177.938,170.946z M180.108,201.889c-0.804-5.144-1.889-9.725-2.13-12.016
		c-0.362-4.019-0.442-7.876-0.362-11.895c0-1.165,0.08-2.331,0.161-3.456c-2.974,1.487-5.907,2.612-8.56,5.023
		c-3.094,2.813-5.063,6.148-6.791,9.886c4.501,4.059,7.997,9.283,9.805,14.909C174.724,203.054,177.376,202.13,180.108,201.889z
		 M178.581,128.711c-0.723-1.045-1.366-2.17-2.13-3.255c-1.085-1.567-2.371-3.014-3.777-4.34c-1.527-1.447-3.175-2.692-4.983-3.777
		c-0.08-0.08-0.201-0.12-0.322-0.201c-1.848,5.184-3.496,10.448-4.903,15.954c-0.08,0.362-0.201,0.804-0.322,1.246
		c2.572,0.321,4.903,1.768,6.872,3.536c1.406-2.853,3.496-5.264,6.148-7.153C176.13,129.997,177.336,129.313,178.581,128.711z
		 M174.04,151.576c-0.643-0.844-0.965-1.929-1.487-3.054c-0.844-1.768-1.768-3.536-2.893-5.184c-2.21-3.175-4.903-5.063-7.997-6.952
		c-1.286,5.144-3.094,13.181-4.662,22.424c2.291,0.764,4.421,2.049,6.309,3.577c1.889-3.376,4.38-6.269,7.475-8.6
		C171.71,153.063,172.835,152.3,174.04,151.576z M170.062,49.344c-0.522-0.321-0.964,0.121-1.969,0
		c-0.683-0.08-1.246-0.402-1.688-0.924c-0.563-0.643-0.482-1.366-0.683-2.13c-0.201-0.603-0.04-0.964-0.804-1.125
		c-0.482-0.08-1.447,0.402-1.848,0.563c-1.045,0.482-2.411-0.281-2.049-1.567c0.442-1.648,0.522-3.295,0.603-4.943
		c-1.206,1.206-2.612,2.09-4.26,2.893c-1.246,0.563-2.572-0.402-2.291-1.768c0.522-2.612,1.085-5.224,1.607-7.836
		c-1.848,2.733-3.577,5.505-5.224,8.399c-0.362,0.683-1.326,0.924-2.009,0.522c-3.054-1.889-6.831-3.255-9.886-5.184
		c4.34,4.621,7.113,10.609,7.073,17.682c0,0.844-0.563,1.447-1.326,1.728c-5.063,1.929-10.609-7.997-10.971-0.121
		c-0.08,1.286-1.366,2.05-2.532,1.447c-5.746-2.974-4.019,1.808-7.274,4.782c-2.25,2.09-3.376-0.12-4.702,2.451
		c-0.442,0.804-1.447,0.924-2.21,0.563l-0.723,0.362c7.032,2.21,13.422,6.189,18.325,12.176c1.005,1.165,1.929,2.532,2.813,3.938
		C134.096,64.775,152.581,50.951,170.062,49.344z M169.057,175.366c-1.286-0.804-1.406-1.929-2.049-3.335
		c-0.723-1.567-1.648-3.054-2.693-4.42c-2.09-2.813-4.782-4.862-7.675-6.751c-1.206,7.354-2.21,15.311-2.652,23.067
		c2.371,1.045,4.621,2.411,6.671,4.059C161.945,183.645,165.079,178.782,169.057,175.366z M158.89,217.963
		c2.29-4.581,6.148-9.002,10.73-12.056c-3.175-8.6-8.318-14.668-15.753-19.611C153.345,198.795,154.47,210.569,158.89,217.963z
		 M133.815,47.214c12.578,7.113,6.55-5.224,1.085-10.529c-7.354-7.032-18.727-8.077-28.13-5.988
		c-13.824,3.054-23.268,12.377-30.702,23.75c0.804,0.764,1.527,1.648,2.049,2.652c0.723,1.406,1.125,3.175,1.085,4.903
		c4.059-1.366,8.117,0.201,10.529,3.175c7.394-2.331,15.23-2.692,22.665-1.246c0,0,0-0.04,0.04-0.04
		c0.804-0.924,1.648-1.849,2.492-2.773c0.482-0.563,1.286-0.523,1.929-0.241c0.603-0.482,1.206-0.924,1.808-1.406
		c0.402-0.723,1.487-1.045,2.21-0.563c2.09,1.366,3.536-6.711,3.657-7.193c0.241-1.085,1.487-1.447,2.411-1.005
		c4.22,2.17,4.099,2.692,4.3-2.05C131.323,47.375,132.649,46.571,133.815,47.214z M134.859,111.993
		c10.89-10.73,2.532-28.773-7.354-37.091c-10.368-8.64-23.589-9.845-36.408-7.474c0.603,1.406,0.884,2.974,0.723,4.661
		c0.04,0,0.04,0,0.08,0c3.898,2.733,9.645,5.184,12.779,8.56c1.206,1.326,6.028,11.975,9.484,9.886
		c1.366-0.844,2.692,0.522,2.492,1.889c-0.12,0.804-0.322,1.487-0.522,2.21c3.335-2.21,6.55-4.541,9.645-7.153
		c1.286-1.085,3.295-0.08,2.893,1.688c-0.643,2.733-1.407,5.425-2.492,7.997c-0.241,0.603-2.853,4.541-2.733,5.425
		C123.929,106.247,131.122,109.582,134.859,111.993z M133.172,222.584c2.17-9.363,0.161-21.74-0.603-27.045
		c-0.161-1.085-0.402-2.17-0.563-3.255c-2.974,2.813-5.988,5.184-8.238,8.921c-2.492,4.139-4.219,8.64-6.189,13.06
		C123.246,215.954,128.55,218.727,133.172,222.584z M132.167,225.839c-0.04,0-0.08,0-0.08-0.04
		c-4.621-4.019-9.604-7.113-15.472-8.921c-4.461-1.407-9.162-1.688-13.703-2.692c1.407,7.917,4.26,14.869,9.886,18.887
		C124.009,236.489,129.595,232.47,132.167,225.839z M131.363,188.587c-0.643-3.657-1.326-7.274-2.09-10.89
		c-0.844-4.059-1.768-8.077-2.733-12.096c-4.22,0.764-6.791,5.023-8.921,8.479c-1.206,1.969-2.371,4.019-3.536,6.028
		c-0.804,1.366-2.813,3.818-2.893,5.706c4.943,2.331,9.363,5.747,11.573,10.167C125.054,192.566,127.907,189.793,131.363,188.587z
		 M125.657,162.065c-1.045-4.219-2.13-8.439-3.376-12.578c-0.804-2.733-1.607-5.546-2.492-8.359
		c-2.25,2.492-4.661,4.782-6.389,7.876c-2.009,3.576-2.572,7.756-4.179,11.373c3.858,1.085,7.595,3.135,9.564,6.028
		C120.634,164.315,122.844,162.627,125.657,162.065z M121.317,198.352c-0.121-0.04-0.241-0.04-0.362-0.12
		c-3.376-2.893-5.827-6.349-9.604-8.841c-2.853-1.849-5.907-3.215-9.082-4.219c-0.442,8.318-0.884,18.164,0.362,27.045
		c4.34-0.121,8.64,0.362,12.779,1.406C116.575,209.203,118.464,203.376,121.317,198.352z M114.726,172.393
		c0.723-1.246,1.487-2.492,2.291-3.697c-2.492-1.326-4.541-3.376-7.153-4.621c-2.25-1.085-4.581-1.688-6.952-2.21
		c-0.04,4.421-0.08,8.881-0.201,13.301c-0.04,2.291-0.161,4.903-0.322,7.756c2.049,0.442,4.219,1.045,6.349,1.849
		c0.04-0.322,0.121-0.723,0.281-1.125C110.145,179.747,112.757,175.849,114.726,172.393z M118.665,137.391
		c-1.366-4.34-2.853-8.72-4.461-13.06c-1.366,1.246-2.692,2.532-3.737,4.219c-1.527,2.492-2.411,5.184-2.893,7.997
		c2.733,1.045,5.465,2.853,7.233,4.34C116.052,139.48,117.379,138.275,118.665,137.391z M111.27,122.321
		c0.522-0.522,1.085-1.005,1.688-1.407c-2.009-5.104-4.219-10.046-6.751-14.828c-0.482,1.326-0.964,2.692-1.246,4.099
		c-0.522,2.532-0.603,4.983-0.522,7.515c0.322,0.08,0.683,0.201,1.005,0.321C107.493,118.785,110.105,120.272,111.27,122.321z
		 M112.637,143.579c-1.447-1.246-2.974-2.371-4.702-3.295c-1.205-0.603-4.219-2.17-6.028-1.648
		c0.723,6.952,0.964,13.904,0.964,20.856c1.326,0,2.773,0.12,4.179,0.402C106.448,155.032,109.06,148.562,112.637,143.579z
		 M105.564,22.46c1.808-1.607,3.617-3.295,5.626-4.662C87.923,1.885,63.007,16.874,59.35,43.879
		c2.853,1.929,5.023,4.581,5.867,8.278c0.04,0.161,0,0.281-0.04,0.402c0.683-0.362,1.407-0.643,2.17-0.804
		c2.451-0.442,4.943,0.121,7.033,1.406c4.621-11.051,14.145-19.812,25.357-24.192c-2.652-2.411-5.144-4.983-7.675-7.475
		c-1.246-1.246,0.04-3.175,1.648-2.813C97.085,19.406,102.952,19.607,105.564,22.46z M105.604,135.984
		c0.08-3.938,1.447-8.158,3.818-11.453c-1.768-1.125-3.134-2.813-5.144-3.737c-1.849-0.804-3.818-1.165-5.827-1.326
		c1.165,4.3,2.09,8.68,2.733,13.221c0.201,1.165,0.281,2.291,0.442,3.456C102.791,135.663,104.158,135.663,105.604,135.984z
		 M103.836,103.796c0.161-0.362,0.281-0.804,0.482-1.165c-2.17-3.737-4.541-7.274-7.193-10.569
		c-1.005,2.934-1.085,5.787-0.563,9.122C99.134,101.505,101.666,102.349,103.836,103.796z M102.831,106.408
		c-0.12-0.04-0.241-0.08-0.402-0.161c-3.014-2.21-6.349-3.094-9.926-2.974c2.17,4.541,3.938,9.283,5.345,14.186
		c1.487-0.402,3.014-0.442,4.501-0.241C101.746,113.762,101.867,109.904,102.831,106.408z M94.433,101.023
		c-1.286-3.416-1.045-7.475,0.322-10.85c-1.728-0.362-3.295-0.924-5.144-0.804c-1.688,0.08-3.175,0.683-4.742,1.085
		c2.492,3.496,4.742,7.153,6.671,10.93C92.463,101.143,93.468,101.063,94.433,101.023z M83.864,89.128
		c2.009-1.849,5.505-2.692,8.6-2.411c-2.21-2.291-4.501-4.461-7.033-6.39c-0.04-0.04-0.04-0.04-0.08-0.08
		c-2.21,0.603-4.822,0.442-6.47-1.165c-0.322,1.005-0.723,1.889-1.206,2.773c0.08,0.08,0.161,0.08,0.241,0.201
		C80.086,84.306,82.055,86.717,83.864,89.128z M88.887,71.245c0.08-5.224-4.943-8.158-9.685-7.032c-0.08,0.04-0.161-0.04-0.241-0.04
		c-0.322,1.326-0.884,2.572-1.808,3.496c1.607,2.291,2.331,5.546,2.21,8.399c0.241,0,0.522,0.08,0.804,0.241
		C84.225,79.041,88.807,76.067,88.887,71.245z M75.425,78.72c1.808-5.104,0.362-10.247-5.345-11.292
		c-0.161,0-0.201-0.121-0.322-0.161c-4.501,1.206-8.198,5.144-7.635,9.484c0.321,0.161,0.442,0.603,0.241,0.924
		c0.321,1.205,0.884,2.411,1.929,3.576C68.071,85.511,73.657,83.823,75.425,78.72z M74.862,65.499
		c0.804-2.21,1.648-4.179,0.362-6.711c-1.206-2.371-3.898-3.978-6.59-3.737c-5.907,0.522-7.314,7.233-3.456,10.89
		c1.527-0.643,3.175-0.924,4.822-0.804c0.04,0,0.04-0.04,0.08-0.04C71.969,64.574,73.536,64.775,74.862,65.499z M72.612,145.307
		c-0.241-2.612-0.08-5.063,0.402-7.675c-4.983-1.849-9.805-4.139-14.427-6.791c-1.286-0.723-0.804-3.175,0.844-2.974
		c3.737,0.402,7.354,0.362,11.011-0.121c-0.643-0.723-1.246-1.487-1.688-2.371c-0.241-0.482-0.322-1.125,0-1.607
		c2.09-2.933,1.808-5.706,2.17-9.082c-1.527-1.608-5.104-3.778-5.867-4.3c-0.844-0.603-0.964-2.331,0.362-2.532
		c0.804-0.121,4.702-0.763,5.747-0.884c-0.804-0.281-2.934-2.612-3.496-3.175c-0.844-0.804-0.442-2.331,0.683-2.612
		c0.643-0.161,1.286-0.322,1.929-0.442c-0.643-0.844-1.045-1.768-0.924-2.934c0.12-1.487,1.125-2.13,1.929-3.014
		c-1.527-2.331-2.009-4.461-1.768-7.474c-1.366,0-2.813-0.281-4.3-1.005c-2.974-1.447-5.104-4.26-6.068-7.434
		c-14.266,5.747-21.419,22.102-20.454,37.132C39.901,134.497,54.85,145.91,72.612,145.307z M64.253,53.081
		c-0.121-0.04-0.201-0.08-0.321-0.161c-12.458-11.734-32.55-11.573-46.897-2.813C0.077,60.395,2.046,79.885,7.31,96.16
		c2.451-2.652,4.541-5.264,6.711-8.439c0.643-0.965,1.808-1.085,2.692-0.362c0.683,0.563,1.366,1.165,2.09,1.728
		c-0.161-4.621-0.281-9.283-0.402-13.904c-0.04-1.929,2.331-2.21,3.295-0.924c2.974,4.099,6.028,8.118,9.042,12.176
		c3.135-4.099,8.881-2.733,14.306-1.808c3.577-4.139,8.158-7.073,13.703-7.796c-0.201-1.889,0-3.818,0.804-5.586
		c0.683-1.567,1.808-2.893,3.094-3.898C57.743,63.811,59.27,56.216,64.253,53.081z"/>
	<path style="fill:#33AA6C;" d="M262.288,60.315c14.507,9.002,18.284,26.844,12.9,42.275c-0.965-0.482-1.246-0.482-3.215-1.366
		c-3.295-1.447-3.577-1.849-3.335-5.345c0.241-3.858,0.764-7.434,0.563-11.292c-0.08-1.688-2.25-2.331-3.134-0.844
		c-1.768,2.853-3.376,5.787-4.903,8.72c-0.241-1.246-1.728-1.688-2.692-0.844c-1.648,1.366-11.694,0.161-13.342-0.281
		c-0.201-0.04-0.402,0-0.563,0.04c-6.43-10.77-17.36-18.686-30.3-19.691c-0.121-1.728-0.603-3.376-1.487-4.742
		c2.09-1.045,4.099-2.532,4.903-4.782c0.281-0.844,0.362-1.728,0.362-2.612C233.154,55.412,247.821,51.313,262.288,60.315z
		 M256.18,76.108c0.643,0.603,1.768-0.201,1.246-0.964c-0.764-1.165-1.648-2.21-2.532-3.255c-0.764-0.924-2.049,0.362-1.286,1.286
		C254.412,74.179,255.256,75.183,256.18,76.108z M243.521,62.525c0.764,0.12,1.045-0.884,0.322-1.165
		c-2.974-1.085-5.907-1.005-8.921-0.121c-0.924,0.281-0.563,1.607,0.402,1.447C238.016,62.123,240.789,62.163,243.521,62.525z
		 M240.95,59.712c0.965,0.201,1.407-1.246,0.402-1.527c-3.496-0.924-6.952-0.844-10.488,0c-1.005,0.241-0.563,1.768,0.442,1.567
		C234.52,59.109,237.735,59.189,240.95,59.712z"/>
	<path style="fill:#33AA6C;" d="M274.987,39.9c-2.13,1.648-4.22,3.376-6.349,5.023c-0.764-1.005-1.768-1.728-3.014-2.492
		c-3.697-2.25-7.716-4.099-11.533-6.148c-1.487-0.764-3.295,0.844-2.371,2.411c1.487,2.451,2.974,4.943,4.42,7.394
		c-0.121,0.08-0.241,0.121-0.402,0.201c-2.13,1.407-0.402,3.737-2.893,4.943c-0.523,0.241-0.723,0.683-0.764,1.165
		c-11.172-3.134-23.669-2.049-34.238,5.104c-0.321-1.447-1.005-2.853-1.929-3.978c-2.813-3.496-8.318-3.938-11.011-0.723
		c0.362-1.929,0.563-3.898,0.723-5.867c0.281-0.121,0.522-0.281,0.603-0.643c3.335-16.195,16.677-26.844,33.193-26.362
		C254.452,20.37,265.222,29.573,274.987,39.9z M257.506,31.542c0.884,0.844,2.009-0.362,1.286-1.246
		c-2.652-3.255-6.831-4.42-10.89-3.456c-1.125,0.281-0.643,1.969,0.482,1.768C251.759,28.005,255.095,29.211,257.506,31.542z
		 M252.202,46.933c0.603-0.563-0.161-1.527-0.844-1.125c-1.326,0.764-2.652,1.286-4.179,1.407c-0.924,0.08-0.965,1.447,0,1.487
		C249.107,48.741,250.715,48.179,252.202,46.933z M220.736,37.087c0.884-0.321,0.522-1.607-0.362-1.366
		c-2.492,0.683-4.541,1.808-6.43,3.576c-0.764,0.683,0.322,1.768,1.085,1.125C216.718,39.016,218.687,37.851,220.736,37.087z
		 M214.467,36.123c0.924-0.563,0.121-1.849-0.844-1.406c-2.572,1.125-4.179,3.295-4.983,5.947c-0.322,1.045,1.246,1.447,1.648,0.442
		C211.092,38.976,212.578,37.369,214.467,36.123z"/>
	<path style="fill:#1D1D1B;" d="M258.792,30.296c0.723,0.884-0.402,2.09-1.286,1.246c-2.411-2.331-5.747-3.536-9.122-2.934
		c-1.125,0.201-1.607-1.487-0.482-1.768C251.96,25.876,256.14,27.041,258.792,30.296z"/>
	<path style="fill:#1D1D1B;" d="M257.426,75.143c0.522,0.763-0.603,1.567-1.246,0.964c-0.924-0.924-1.768-1.929-2.572-2.934
		c-0.764-0.924,0.522-2.21,1.286-1.286C255.778,72.933,256.662,73.978,257.426,75.143z"/>
	<path style="fill:#1D1D1B;" d="M251.358,45.808c0.683-0.402,1.447,0.563,0.844,1.125c-1.487,1.246-3.094,1.808-5.023,1.768
		c-0.965-0.04-0.924-1.407,0-1.487C248.705,47.094,250.032,46.571,251.358,45.808z"/>
	<path style="fill:#33AA6C;" d="M245.651,102.992c3.135,10.971,2.049,24.192-8.64,30.822c-6.832,4.219-14.949,4.139-22.665,4.179
		c-1.648-10.087-1.125-7.434,5.666-10.006c4.018-1.527,7.796-2.411,11.694-4.34c1.848-0.924,0.723-3.335-0.965-3.536
		c-4.34-0.482-8.519-1.246-12.699-2.13c0.522-0.322,1.005-0.643,1.567-1.045c0.924-0.764,0.563-2.411-0.402-2.934
		c-5.104-2.853-2.773-9.685-3.858-14.828c-1.045-5.144-3.697-13.583-3.335-19.008c0-0.402-0.12-0.723-0.281-1.005
		c1.406-1.527,2.21-3.456,2.451-5.465C228.854,78.84,241.15,87.038,245.651,102.992z M234.761,90.253
		c0.643,0.442,1.407-0.563,0.844-1.085c-2.25-2.09-4.903-3.416-7.796-4.34c-0.964-0.281-1.326,1.165-0.402,1.487
		C230.059,87.199,232.47,88.605,234.761,90.253z M232.631,98.17c0.763,0.764,1.848-0.362,1.165-1.165
		c-1.286-1.567-2.692-3.014-4.099-4.461c-0.683-0.764-1.768,0.362-1.125,1.125C229.898,95.196,231.184,96.723,232.631,98.17z
		 M232.872,129.273c0.603-0.964-0.844-1.768-1.487-0.884c-2.009,2.652-4.742,4.501-7.997,5.264
		c-1.005,0.241-0.563,1.607,0.402,1.487C227.608,134.618,230.823,132.528,232.872,129.273z"/>
	<path style="fill:#1D1D1B;" d="M243.843,61.36c0.723,0.281,0.442,1.286-0.322,1.165c-2.733-0.362-5.505-0.402-8.198,0.161
		c-0.964,0.161-1.326-1.165-0.402-1.447C237.936,60.355,240.869,60.275,243.843,61.36z"/>
	<path style="fill:#1D1D1B;" d="M241.351,58.185c1.005,0.281,0.563,1.728-0.402,1.527c-3.215-0.522-6.43-0.603-9.645,0.04
		c-1.005,0.201-1.447-1.326-0.442-1.567C234.399,57.341,237.855,57.261,241.351,58.185z"/>
	<path style="fill:#1D1D1B;" d="M235.605,89.168c0.563,0.522-0.201,1.527-0.844,1.085c-2.291-1.648-4.702-3.054-7.354-3.938
		c-0.924-0.322-0.563-1.768,0.402-1.487C230.702,85.752,233.354,87.078,235.605,89.168z"/>
	<path style="fill:#1D1D1B;" d="M233.797,97.004c0.683,0.804-0.402,1.929-1.165,1.165c-1.447-1.447-2.733-2.974-4.059-4.501
		c-0.643-0.764,0.442-1.889,1.125-1.125C231.104,93.99,232.511,95.437,233.797,97.004z"/>
	<path style="fill:#1D1D1B;" d="M231.385,128.389c0.643-0.884,2.09-0.08,1.487,0.884c-2.049,3.255-5.264,5.345-9.082,5.867
		c-0.964,0.121-1.406-1.246-0.402-1.487C226.643,132.89,229.376,131.041,231.385,128.389z"/>
	<path style="fill:#1D1D1B;" d="M229.175,238.257c2.291,1.929,3.536,4.581,3.295,7.595c-0.08,1.045-1.607,1.085-1.648,0
		c-0.12-2.451-1.125-4.621-3.014-6.229C226.885,238.779,228.251,237.453,229.175,238.257z"/>
	<path style="fill:#1D1D1B;" d="M228.371,244.084c2.13,2.532,3.094,5.505,2.692,8.801c-0.12,1.246-2.09,1.326-2.009,0
		c0.161-2.773-0.563-5.385-2.17-7.635C226.242,244.365,227.688,243.28,228.371,244.084z"/>
	<path style="fill:#683C11;" d="M183.363,194.816c32.832,15.311,56.38,39.985,64.418,76.353
		c-69.722-2.371-140.087-2.491-209.85-2.532c7.073-12.9,10.81-25.96,20.896-37.453c10.569-12.056,23.75-20.896,38.739-26.442
		c0.281-0.121,0.563-0.281,0.763-0.482c-0.04,13.703,2.17,28.13,15.351,32.269c0.362,0.08,0.683,0,0.924-0.201
		c6.349,1.567,12.618-0.442,17.32-6.068c8.238-9.805,5.988-24.433,3.697-36.649c2.451-0.201,4.943-0.402,7.434-0.442
		c2.411-0.04,4.862,0.281,7.233-0.121c-0.322,17.601,3.295,34.881,20.053,35.886c0.241,0.04,0.402,0,0.563-0.08
		c11.614,2.652,14.065-15.11,13.181-25.036C183.846,200.764,183.605,197.75,183.363,194.816z M232.47,245.852
		c0.241-3.014-1.005-5.666-3.295-7.595c-0.924-0.804-2.291,0.522-1.366,1.366c1.889,1.607,2.893,3.777,3.014,6.229
		C230.863,246.937,232.39,246.897,232.47,245.852z M231.064,252.884c0.402-3.295-0.563-6.269-2.692-8.801
		c-0.683-0.804-2.13,0.281-1.487,1.165c1.607,2.25,2.331,4.863,2.17,7.635C228.974,254.211,230.943,254.13,231.064,252.884z
		 M188.347,224.795c1.246-1.768,2.049-3.858,1.808-6.068c-0.12-1.206-1.688-1.165-1.848,0c-0.241,1.889-0.603,3.496-1.608,5.144
		C186.056,224.915,187.663,225.799,188.347,224.795z M176.773,252.442c0.723,0.764,1.728-0.321,1.125-1.125
		c-1.487-1.929-3.376-3.255-5.626-4.219c-0.965-0.402-1.808,1.005-0.844,1.447C173.478,249.469,175.246,250.795,176.773,252.442z
		 M147.478,222.464c1.005-3.014,0.804-5.827-0.482-8.68c-0.362-0.764-1.607-0.241-1.326,0.563c0.844,2.492,0.884,5.104,0.12,7.635
		C145.468,223.067,147.116,223.509,147.478,222.464z M143.539,217.441c0.563-2.652,0.161-5.385-0.643-7.957
		c-0.281-0.924-1.648-0.523-1.447,0.402c0.563,2.451,0.482,4.822,0.402,7.354C141.852,218.164,143.339,218.405,143.539,217.441z
		 M143.178,264.378c0.924,0.08,1.125-1.447,0.241-1.648c-3.496-0.723-6.952-1.326-10.488-1.808
		c-1.286-0.161-1.889,1.768-0.563,2.009C135.985,263.534,139.561,264.016,143.178,264.378z M137.19,267.191
		c0.804-0.04,1.165-1.447,0.201-1.567c-3.255-0.482-6.992-0.563-10.247-0.281c-0.764,0.08-1.085,1.286-0.201,1.447
		C130.198,267.271,133.895,267.472,137.19,267.191z M97.487,236.85c0.844,0.04,0.764-1.165,0-1.286
		c-2.733-0.362-4.943-2.09-6.269-4.501c-0.281-0.522-1.206-0.161-1.005,0.442C91.298,234.761,94.111,236.69,97.487,236.85z
		 M96.643,230.38c0.683,0.402,1.487-0.603,0.884-1.125c-1.889-1.567-3.175-3.536-3.416-5.988c-0.08-0.924-1.447-0.964-1.407,0
		C92.825,226.201,94.151,228.773,96.643,230.38z M57.06,250.835c0.603-0.804-0.723-1.848-1.366-1.085
		c-1.768,2.009-2.773,4.3-3.255,6.912c-0.201,1.085,1.447,1.567,1.688,0.482C54.609,254.773,55.653,252.764,57.06,250.835z
		 M51.876,248.705c0.362-0.723-0.683-1.366-1.125-0.643c-2.09,3.135-3.456,6.47-4.3,10.127c-0.241,0.924,1.165,1.286,1.407,0.402
		C48.782,255.135,50.188,251.84,51.876,248.705z"/>
	<path style="fill:#1D1D1B;" d="M220.374,35.721c0.884-0.241,1.246,1.045,0.362,1.366c-2.049,0.764-4.019,1.929-5.706,3.335
		c-0.763,0.643-1.848-0.442-1.085-1.125C215.834,37.529,217.883,36.404,220.374,35.721z"/>
	<path style="fill:#683C11;" d="M213.945,56.055c0.964,1.527,1.487,3.898,0.563,5.626c-0.763,1.487-2.411,2.21-3.818,3.094
		c-1.326-0.924-2.974-1.406-4.983-1.165c0.281-0.804,0.522-1.648,0.563-2.491c0.08-1.808-0.402-3.496-1.206-4.903
		c0.08-0.08,0.201-0.121,0.241-0.201C207.234,52.519,211.935,52.8,213.945,56.055z M213.021,59.993c1.929,0,1.929-3.014,0-3.014
		S211.092,59.993,213.021,59.993z M210.529,57.301c1.688,0,1.688-2.652,0-2.652C208.801,54.649,208.801,57.301,210.529,57.301z
		 M209.002,60.837c1.768,0,1.768-2.692,0-2.692S207.234,60.837,209.002,60.837z"/>
	<path style="fill:#1D1D1B;" d="M213.623,34.716c0.964-0.442,1.768,0.844,0.844,1.406c-1.889,1.246-3.376,2.853-4.179,4.983
		c-0.402,1.005-1.969,0.603-1.648-0.442C209.444,38.012,211.051,35.842,213.623,34.716z"/>
	<path style="fill:#1D1D1B;" d="M213.021,56.979c1.929,0,1.929,3.014,0,3.014S211.092,56.979,213.021,56.979z"/>
	<path style="fill:#1D1D1B;" d="M210.529,54.649c1.688,0,1.688,2.652,0,2.652C208.801,57.301,208.801,54.649,210.529,54.649z"/>
	<path style="fill:#1D1D1B;" d="M209.002,58.145c1.768,0,1.768,2.692,0,2.692S207.234,58.145,209.002,58.145z"/>
	<path style="fill:#1D1D1B;" d="M207.555,69.919c2.25,0.161,2.09,4.34-0.683,3.657c-0.08-0.04-0.161-0.04-0.241-0.08
		c-0.723-0.161-1.326-0.964-1.326-1.728c0-0.04,0-0.121,0.04-0.161C205.345,70.482,206.551,69.638,207.555,69.919z"/>
	<path style="fill:#683C11;" d="M205.345,66.463c7.434-1.165,8.077,10.047,1.889,12.136c-6.229,2.049-6.912-5.666-5.666-9.685
		c1.045-0.683,2.009-1.608,2.773-2.612C204.622,66.463,204.983,66.543,205.345,66.463z M206.872,73.576
		c2.773,0.683,2.934-3.496,0.683-3.657c-1.005-0.281-2.21,0.563-2.21,1.688c-0.04,0.04-0.04,0.121-0.04,0.161
		c0,0.764,0.603,1.567,1.326,1.728C206.711,73.536,206.792,73.536,206.872,73.576z"/>
	<path style="fill:#683C11;" d="M203.054,59.23c0.884,3.697-2.13,7.716-5.867,8.117c-3.577,0.362-6.992-2.451-7.434-5.988
		c-0.201-1.366,0.121-2.692,0.764-3.818c0.844,0.241,1.567-0.683,1.045-1.447c1.246-1.326,3.014-2.25,4.903-2.411
		c0.201-0.04,0.402-0.08,0.563-0.201C199.799,54.287,202.371,56.336,203.054,59.23z M200.483,61.802c1.688,0,1.688-2.612,0-2.612
		C198.755,59.189,198.755,61.802,200.483,61.802z M196.946,58.346c1.768,0,1.768-2.733,0-2.733S195.178,58.346,196.946,58.346z
		 M195.7,62.726c1.407-0.643,1.085-2.331,0.04-3.094c-1.125-0.804-2.25,0.281-2.291,1.366
		C193.129,62.083,194.535,63.288,195.7,62.726z"/>
	<path style="fill:#33AA6C;" d="M181.836,11.489c18.968,5.586,21.861,24.554,20.535,41.713c-1.406-1.005-3.094-1.648-4.903-1.768
		c-0.201-0.281-0.522-0.482-1.005-0.442c-2.693,0.08-5.224,1.286-7.033,3.134c-4.501-3.496-10.288-5.023-16.356-4.943
		c0.241-1.165-0.442-2.331-1.567-2.933c-0.563-0.321-1.366-0.522-2.009-0.321c-0.121,0-0.683,0.201-0.804,0.402
		c-0.04-0.321-0.04-0.844-0.08-0.964c-0.482-2.733-2.612-3.376-4.782-2.893c0.04-1.447,0-2.934-0.321-4.34
		c-0.08-0.362-0.322-0.522-0.563-0.603c0.08-0.08,0.121-0.121,0.161-0.201c0.804-1.326-0.924-2.411-1.969-1.567
		c-0.804,0.643-1.567,1.286-2.371,1.848c0.764-3.777,1.527-7.515,2.291-11.292c0.281-1.366-1.527-2.813-2.572-1.487
		c-3.376,4.179-6.43,8.6-8.921,13.342c-3.255-1.607-6.59-2.853-9.926-4.3c-0.04-0.04-0.04-0.08-0.08-0.161
		c-0.161-0.201-0.442-0.402-0.723-0.281C143.419,14.825,163.914,6.225,181.836,11.489z M191.642,29.573
		c0.362,0.884,1.688,0.563,1.487-0.402c-0.723-3.094-2.411-5.706-4.541-8.037c-0.643-0.683-1.567,0.322-1.005,1.045
		C189.351,24.429,190.557,26.961,191.642,29.573z M191.883,24.63c0.322,0.563,1.286,0.201,1.085-0.442
		c-1.286-3.536-3.858-6.349-7.274-7.917c-0.603-0.281-1.085,0.522-0.522,0.884C188.065,19.084,190.275,21.576,191.883,24.63z
		 M153.706,26.157c1.005-0.563,0.121-1.969-0.844-1.487c-2.692,1.286-4.179,3.778-4.42,6.671c-0.04,0.723,1.125,0.884,1.286,0.161
		C150.21,29.171,151.657,27.362,153.706,26.157z"/>
	<path style="fill:#1D1D1B;" d="M200.483,59.189c1.688,0,1.688,2.612,0,2.612C198.755,61.802,198.755,59.189,200.483,59.189z"/>
	<path style="fill:#CA9E67;" d="M199.478,78.559c-0.281,0.201-0.563,0.482-0.683,0.884c-0.161,0.442-0.281,0.884-0.442,1.326
		c-3.737-0.964-7.957,0.121-10.649,2.934c-0.924-1.005-1.929-1.849-3.134-2.492c2.331-4.019,4.742-8.037,7.314-12.016
		c1.406,0.804,2.934,1.286,4.581,1.286c0.924,0,1.808-0.201,2.692-0.482C197.991,72.772,197.79,75.907,199.478,78.559z"/>
	<path style="fill:#1D1D1B;" d="M196.946,55.613c1.768,0,1.768,2.733,0,2.733S195.178,55.613,196.946,55.613z"/>
	<path style="fill:#CA9E67;" d="M197.348,83.863c-0.844,2.572-1.688,5.184-2.492,7.796c-1.165-0.241-2.331-0.241-3.496-0.121
		c0.201-2.17-1.005-4.541-2.25-6.269C191.843,83.823,194.415,83.341,197.348,83.863z"/>
	<path style="fill:#1D1D1B;" d="M195.741,59.632c1.045,0.764,1.366,2.451-0.04,3.094c-1.165,0.563-2.572-0.643-2.25-1.728
		C193.49,59.913,194.615,58.828,195.741,59.632z"/>
	<path style="fill:#CA9E67;" d="M181.957,100.299c2.853-3.978,6.992-5.867,11.935-5.546c-1.407,4.621-2.733,9.283-4.019,13.944
		c-0.121-0.201-0.322-0.362-0.643-0.442c-0.964-0.241-1.929-0.201-2.934-0.121c-0.04-2.532-2.331-5.546-3.818-7.354
		C182.319,100.621,182.118,100.46,181.957,100.299z"/>
	<path style="fill:#1D1D1B;" d="M193.129,29.171c0.201,0.965-1.125,1.286-1.487,0.402c-1.085-2.612-2.291-5.144-4.059-7.394
		c-0.563-0.723,0.362-1.728,1.005-1.045C190.717,23.464,192.405,26.076,193.129,29.171z"/>
	<path style="fill:#1D1D1B;" d="M192.968,24.188c0.201,0.643-0.764,1.005-1.085,0.442c-1.607-3.054-3.818-5.546-6.711-7.475
		c-0.563-0.362-0.08-1.165,0.522-0.884C189.11,17.838,191.682,20.651,192.968,24.188z"/>
	<path style="fill:#1D1D1B;" d="M190.155,218.727c0.241,2.21-0.563,4.3-1.808,6.068c-0.683,1.005-2.291,0.121-1.648-0.924
		c1.005-1.648,1.366-3.255,1.608-5.144C188.467,217.561,190.034,217.521,190.155,218.727z"/>
	<path style="fill:#CA9E67;" d="M189.231,110.748c0.08-0.04,0.08-0.08,0.121-0.121c-1.447,5.465-2.813,10.971-4.059,16.476
		c-1.165-0.12-2.371,0.121-3.576,0.442c-1.005-3.054-3.978-6.028-6.189-8.037c-0.241-0.201-0.522-0.442-0.763-0.643
		c1.728-2.17,3.536-4.019,5.988-5.425C183.524,111.833,186.377,111.833,189.231,110.748z M185.091,115.048
		c0.764-0.241,0.643-1.487-0.201-1.447c-2.371,0.161-3.697,2.09-3.376,4.38c0.12,0.764,1.326,0.563,1.326-0.201
		C182.881,116.374,183.806,115.449,185.091,115.048z"/>
	<path style="fill:#33AA6C;" d="M154.43,76.952c0,0.04,0.04,0.121,0.04,0.161c0.322,1.085,2.25,7.032,2.733,6.229
		c-0.522,2.009-3.295,3.697-4.702,4.863c-2.612,2.21-4.742,4.219-6.47,6.832c-1.326-3.054-2.532-6.148-3.697-9.243
		c0-0.161,0.04-0.322,0-0.482c-5.907-25.799,25.397-38.257,45.49-29.054c-0.723,1.326-1.165,2.773-1.206,4.38
		c0,1.728,0.563,3.376,1.406,4.822c-5.666-0.04-11.172,4.099-16.195,6.55c-0.482,0.241-2.813,0.884-3.536,1.205
		c-1.125,0.482-2.09,1.447-3.175,1.648c0.241-0.04-2.853-0.643-2.853-0.723c-0.764,0.04-1.447,0.723-1.447,1.487
		c0.241,5.385-0.643,3.255-3.898,0.08C155.957,74.782,154.148,75.625,154.43,76.952z M151.496,72.491
		c0.482-1.005-0.924-1.889-1.527-0.884c-2.009,3.335-2.612,6.872-2.049,10.73c0.12,0.924,1.728,0.723,1.648-0.241
		C149.407,78.8,150.09,75.465,151.496,72.491z M145.83,85.149c0.603,0.964,2.009,0.12,1.527-0.924
		c-1.366-2.853-1.246-5.586-1.326-8.64c0-0.723-1.085-1.125-1.447-0.402C143.057,78.358,144.022,82.256,145.83,85.149z"/>
	<path style="fill:#CA9E67;" d="M186.779,86.596c1.045,1.688,1.206,3.697,2.049,5.385c-3.536,1.045-6.711,3.536-8.319,6.912
		c-1.246-1.085-2.572-2.009-4.059-2.693c2.21-4.461,4.581-8.841,7.073-13.221C184.77,84.024,185.976,85.19,186.779,86.596z"/>
	<path style="fill:#1D1D1B;" d="M184.891,113.601c0.844-0.04,0.964,1.206,0.201,1.447c-1.286,0.402-2.21,1.326-2.25,2.733
		c0,0.763-1.206,0.964-1.326,0.201C181.193,115.691,182.52,113.762,184.891,113.601z"/>
	<path style="fill:#CA9E67;" d="M184.489,130.358c-1.326,6.148-2.572,12.337-3.617,18.566c-1.326,0.12-2.652,0.603-3.978,1.165
		c-0.281-1.085-0.884-2.09-1.447-3.255c-1.206-2.371-2.572-4.702-4.3-6.751c-0.241-0.281-0.522-0.563-0.804-0.844
		c1.929-2.652,4.22-4.903,7.113-6.55C179.707,131.403,182.118,131.041,184.489,130.358z"/>
	<path style="fill:#CA9E67;" d="M180.35,102.912c1.246,1.768,1.848,4.139,3.054,5.907c-4.219,1.567-8.158,5.305-10.006,8.962
		c-1.567-1.246-3.295-2.331-5.144-3.054c2.17-5.787,4.702-11.373,7.394-16.878C177.336,99.415,179.023,101.023,180.35,102.912z"/>
	<path style="fill:#CA9E67;" d="M180.55,205.144c1.326,10.77,0.522,22.343-12.096,20.374c-3.456-0.884-6.189-2.853-8.318-5.666
		c0.04-0.04,0.08-0.04,0.08-0.08c2.451-4.179,5.626-7.676,9.725-10.328C173.317,207.234,176.853,206.269,180.55,205.144z
		 M175.969,213.864c0.241-0.804-1.085-1.407-1.406-0.603c-0.683,1.648-2.291,2.733-4.099,2.411
		c-0.924-0.161-1.326,1.165-0.402,1.407C172.714,217.762,175.166,216.436,175.969,213.864z M173.719,218.847
		c0.161-0.643-0.804-0.924-1.005-0.281c-0.603,2.21-3.335,3.175-5.184,1.808c-0.402-0.281-0.884,0.362-0.522,0.643
		C169.339,222.866,172.996,221.781,173.719,218.847z"/>
	<path style="fill:#CA9E67;" d="M180.229,152.661c-1.005,6.068-1.848,12.176-2.29,18.285c-2.451,0.322-4.822,1.447-6.992,2.974
		c0.241-2.853-2.692-6.43-4.3-8.318c-0.522-0.603-1.045-1.165-1.607-1.688c2.13-3.295,4.742-6.148,8.077-8.278
		C175.326,154.188,177.858,153.545,180.229,152.661z M175.889,158.247c0.362-0.563-0.362-1.406-0.965-0.964
		c-1.848,1.407-3.255,3.255-4.782,5.023c-0.683,0.844,0.482,2.049,1.246,1.246C172.996,161.864,174.683,160.256,175.889,158.247z"/>
	<path style="fill:#CA9E67;" d="M177.979,189.873c0.241,2.29,1.326,6.872,2.13,12.016c-2.733,0.241-5.385,1.165-7.876,2.451
		c-1.808-5.626-5.304-10.85-9.805-14.909c1.728-3.737,3.697-7.073,6.791-9.886c2.652-2.411,5.586-3.536,8.56-5.023
		c-0.08,1.125-0.161,2.291-0.161,3.456C177.537,181.997,177.617,185.855,177.979,189.873z M172.714,192.767
		c0.201,0.764,1.246,0.442,1.125-0.322c-0.402-2.652-1.848-4.661-4.099-6.068c-0.683-0.402-1.206,0.603-0.603,1.045
		C170.946,188.708,172.152,190.637,172.714,192.767z M170.343,193.048c0.362,0.442,1.165,0,0.964-0.563
		c-1.005-2.492-3.376-3.617-6.028-3.456c-0.643,0.04-0.643,0.964,0,1.005C167.45,190.195,168.977,191.481,170.343,193.048z"/>
	<path style="fill:#1D1D1B;" d="M177.898,251.317c0.603,0.804-0.402,1.889-1.125,1.125c-1.527-1.648-3.295-2.974-5.345-3.898
		c-0.965-0.442-0.121-1.848,0.844-1.447C174.523,248.062,176.411,249.388,177.898,251.317z"/>
	<path style="fill:#CA9E67;" d="M176.452,125.456c0.764,1.085,1.407,2.21,2.13,3.255c-1.246,0.603-2.451,1.286-3.416,2.009
		c-2.652,1.889-4.742,4.3-6.148,7.153c-1.969-1.768-4.3-3.215-6.872-3.536c0.121-0.442,0.241-0.884,0.322-1.246
		c1.406-5.505,3.054-10.77,4.903-15.954c0.121,0.08,0.241,0.121,0.322,0.201c1.808,1.085,3.456,2.331,4.983,3.777
		C174.081,122.442,175.367,123.888,176.452,125.456z M174.081,126.581c0.844-0.322,0.522-1.648-0.402-1.407
		c-2.612,0.723-4.3,2.411-5.224,4.903c-0.281,0.764,1.045,1.326,1.366,0.563C170.665,128.791,172.192,127.344,174.081,126.581z"/>
	<path style="fill:#1D1D1B;" d="M174.563,213.261c0.321-0.804,1.648-0.201,1.406,0.603c-0.804,2.572-3.255,3.898-5.907,3.215
		c-0.924-0.241-0.522-1.567,0.402-1.407C172.272,215.994,173.88,214.909,174.563,213.261z"/>
	<path style="fill:#1D1D1B;" d="M174.924,157.283c0.603-0.442,1.326,0.402,0.965,0.964c-1.206,2.009-2.893,3.617-4.501,5.305
		c-0.763,0.804-1.929-0.402-1.246-1.246C171.669,160.538,173.076,158.689,174.924,157.283z"/>
	<path style="fill:#1D1D1B;" d="M173.679,125.174c0.924-0.241,1.246,1.085,0.402,1.407c-1.889,0.763-3.416,2.21-4.26,4.059
		c-0.321,0.764-1.648,0.201-1.366-0.563C169.379,127.586,171.067,125.898,173.679,125.174z"/>
	<path style="fill:#1D1D1B;" d="M173.839,192.445c0.121,0.764-0.924,1.085-1.125,0.322c-0.563-2.13-1.768-4.059-3.577-5.345
		c-0.603-0.442-0.08-1.447,0.603-1.045C171.991,187.784,173.438,189.793,173.839,192.445z"/>
	<path style="fill:#1D1D1B;" d="M172.714,218.566c0.201-0.643,1.165-0.362,1.005,0.281c-0.723,2.934-4.38,4.019-6.711,2.17
		c-0.362-0.281,0.12-0.924,0.522-0.643C169.379,221.741,172.111,220.776,172.714,218.566z"/>
	<path style="fill:#CA9E67;" d="M172.554,148.522c0.522,1.125,0.844,2.21,1.487,3.054c-1.206,0.723-2.331,1.487-3.255,2.21
		c-3.094,2.331-5.586,5.224-7.475,8.6c-1.889-1.527-4.019-2.813-6.309-3.577c1.567-9.243,3.376-17.28,4.662-22.424
		c3.094,1.889,5.787,3.777,7.997,6.952C170.785,144.986,171.71,146.754,172.554,148.522z M167.329,147.196
		c0.322,0.643,1.286,0.08,0.964-0.603c-0.723-1.607-1.808-2.893-3.215-4.019c-0.402-0.322-1.005,0.201-0.603,0.603
		C165.762,144.343,166.606,145.629,167.329,147.196z"/>
	<path style="fill:#1D1D1B;" d="M171.308,192.485c0.201,0.563-0.603,1.005-0.964,0.563c-1.366-1.567-2.893-2.853-5.063-3.014
		c-0.643-0.04-0.643-0.964,0-1.005C167.932,188.869,170.303,189.994,171.308,192.485z"/>
	<path style="fill:#1D1D1B;" d="M168.294,146.593c0.322,0.683-0.643,1.246-0.964,0.603c-0.723-1.567-1.567-2.853-2.853-4.019
		c-0.402-0.402,0.201-0.924,0.603-0.603C166.485,143.7,167.571,144.986,168.294,146.593z"/>
	<path style="fill:#CA9E67;" d="M167.008,172.031c0.643,1.406,0.763,2.532,2.049,3.335c-3.978,3.416-7.113,8.278-8.399,12.618
		c-2.049-1.648-4.3-3.014-6.671-4.059c0.442-7.756,1.447-15.713,2.652-23.067c2.893,1.889,5.586,3.938,7.675,6.751
		C165.36,168.977,166.285,170.464,167.008,172.031z M162.989,173.036c0.643,0.402,1.206-0.442,0.763-1.005
		c-1.447-1.768-3.657-2.612-5.827-3.175c-0.723-0.201-1.005,0.884-0.281,1.125C159.614,170.705,161.181,171.95,162.989,173.036z
		 M161.784,176.532c0.683,0.522,1.447-0.281,0.924-0.924c-1.206-1.527-2.893-2.572-4.742-3.295
		c-0.683-0.241-1.085,0.804-0.482,1.165C159.051,174.362,160.377,175.406,161.784,176.532z"/>
	<path style="fill:#1D1D1B;" d="M163.753,172.031c0.442,0.563-0.12,1.406-0.763,1.005c-1.808-1.085-3.376-2.331-5.345-3.054
		c-0.723-0.241-0.442-1.326,0.281-1.125C160.096,169.419,162.306,170.263,163.753,172.031z"/>
	<path style="fill:#1D1D1B;" d="M163.351,200.482c0.241,0.723-0.844,1.005-1.125,0.322c-0.764-1.969-1.969-3.536-3.737-4.702
		c-0.603-0.402-0.04-1.326,0.563-0.964C161.101,196.464,162.547,198.192,163.351,200.482z"/>
	<path style="fill:#1D1D1B;" d="M162.708,175.607c0.522,0.643-0.241,1.447-0.924,0.924c-1.406-1.125-2.733-2.17-4.3-3.054
		c-0.603-0.362-0.201-1.407,0.482-1.165C159.815,173.036,161.502,174.08,162.708,175.607z"/>
	<path style="fill:#CA9E67;" d="M169.62,205.907c-4.581,3.054-8.439,7.475-10.73,12.056c-4.421-7.394-5.546-19.168-5.023-31.666
		C161.302,191.24,166.445,197.308,169.62,205.907z M162.226,200.804c0.281,0.683,1.366,0.402,1.125-0.322
		c-0.804-2.291-2.25-4.019-4.3-5.345c-0.603-0.362-1.165,0.563-0.563,0.964C160.257,197.267,161.462,198.835,162.226,200.804z"/>
	<path style="fill:#1D1D1B;" d="M152.863,24.67c0.964-0.482,1.848,0.924,0.844,1.487c-2.05,1.206-3.496,3.014-3.978,5.345
		c-0.161,0.723-1.326,0.563-1.286-0.161C148.683,28.447,150.17,25.956,152.863,24.67z"/>
	<path style="fill:#1D1D1B;" d="M149.969,71.607c0.603-1.005,2.009-0.12,1.527,0.884c-1.407,2.974-2.09,6.309-1.929,9.604
		c0.08,0.964-1.527,1.165-1.648,0.241C147.357,78.479,147.96,74.942,149.969,71.607z"/>
	<path style="fill:#1D1D1B;" d="M146.995,213.784c1.286,2.853,1.487,5.666,0.482,8.68c-0.362,1.045-2.009,0.603-1.688-0.482
		c0.764-2.532,0.723-5.144-0.12-7.635C145.388,213.543,146.634,213.02,146.995,213.784z"/>
	<path style="fill:#1D1D1B;" d="M147.357,84.225c0.482,1.045-0.924,1.889-1.527,0.924c-1.808-2.893-2.773-6.791-1.246-9.966
		c0.362-0.723,1.447-0.321,1.447,0.402C146.111,78.639,145.991,81.372,147.357,84.225z"/>
	<path style="fill:#1D1D1B;" d="M142.897,209.484c0.804,2.572,1.206,5.305,0.643,7.957c-0.201,0.965-1.688,0.723-1.688-0.201
		c0.08-2.532,0.161-4.903-0.402-7.354C141.249,208.961,142.615,208.56,142.897,209.484z"/>
	<path style="fill:#1D1D1B;" d="M143.419,262.73c0.884,0.201,0.683,1.728-0.241,1.648c-3.617-0.362-7.193-0.844-10.81-1.447
		c-1.326-0.241-0.723-2.17,0.563-2.009C136.467,261.404,139.923,262.007,143.419,262.73z"/>
	<path style="fill:#33AA6C;" d="M134.9,36.686c5.465,5.305,11.493,17.642-1.085,10.529c-1.165-0.643-2.492,0.161-2.572,1.447
		c-0.201,4.742-0.08,4.22-4.3,2.05c-0.924-0.442-2.17-0.08-2.411,1.005c-0.121,0.482-1.567,8.56-3.657,7.193
		c-0.723-0.482-1.808-0.161-2.21,0.563c-0.603,0.482-1.206,0.924-1.808,1.406c-0.643-0.281-1.447-0.321-1.929,0.241
		c-0.844,0.924-1.688,1.848-2.492,2.773c-0.04,0-0.04,0.04-0.04,0.04c-7.434-1.447-15.271-1.085-22.665,1.246
		c-2.411-2.974-6.47-4.541-10.529-3.175c0.04-1.728-0.362-3.496-1.085-4.903c-0.522-1.005-1.246-1.889-2.049-2.652
		c7.434-11.372,16.878-20.696,30.702-23.75C116.173,28.608,127.546,29.653,134.9,36.686z M118.705,40.021
		c0.924,0.563,1.648-0.804,0.804-1.366c-2.692-1.889-6.148-1.768-8.841,0.08c-0.804,0.563-0.08,1.889,0.764,1.326
		C113.722,38.655,116.414,38.695,118.705,40.021z M118.825,53.885c0.522-0.964-0.884-1.808-1.487-0.844
		c-1.045,1.648-2.371,3.094-3.898,4.3c-0.764,0.643,0.241,1.969,1.085,1.406C116.374,57.462,117.78,55.934,118.825,53.885z
		 M113.239,35.44c1.206,0.362,1.608-1.366,0.522-1.808c-3.657-1.487-7.555-0.522-10.488,1.969c-0.603,0.522,0.201,1.567,0.884,1.125
		C106.89,34.797,110.105,34.515,113.239,35.44z M86.195,59.471c0.201-2.572-1.808-4.501-4.3-4.621c-0.683-0.04-0.643,1.005,0,1.045
		c1.929,0.161,3.215,1.688,3.335,3.576C85.27,60.074,86.114,60.074,86.195,59.471z"/>
	<path style="fill:#1D1D1B;" d="M137.391,265.623c0.965,0.121,0.603,1.527-0.201,1.567c-3.295,0.281-6.992,0.08-10.247-0.402
		c-0.884-0.161-0.563-1.366,0.201-1.447C130.399,265.061,134.136,265.141,137.391,265.623z"/>
	<path style="fill:#33AA6C;" d="M127.505,74.902c9.886,8.319,18.244,26.362,7.354,37.091c-3.737-2.411-10.931-5.746-11.413-9.403
		c-0.121-0.884,2.491-4.822,2.733-5.425c1.085-2.572,1.849-5.264,2.492-7.997c0.402-1.768-1.607-2.773-2.893-1.688
		c-3.094,2.612-6.309,4.943-9.645,7.153c0.201-0.723,0.402-1.407,0.522-2.21c0.201-1.366-1.125-2.733-2.492-1.889
		c-3.456,2.09-8.278-8.56-9.484-9.886c-3.135-3.376-8.881-5.827-12.779-8.56c-0.04,0-0.04,0-0.08,0
		c0.161-1.688-0.121-3.255-0.723-4.661C103.916,65.057,117.137,66.262,127.505,74.902z M124.974,78.197
		c0.603,0.603,1.768-0.201,1.246-0.965c-1.929-2.773-4.822-4.179-8.118-4.581c-0.884-0.08-1.085,1.407-0.201,1.567
		C120.754,74.661,123.005,76.108,124.974,78.197z M124.813,82.658c0.683,0.482,1.567-0.643,0.924-1.206
		c-1.366-1.085-2.773-2.09-4.179-3.094c-0.844-0.603-1.567,0.723-0.804,1.326C122.08,80.689,123.406,81.734,124.813,82.658z
		 M106.167,79.724c0.603,0.402,1.447-0.442,1.005-1.045c-1.406-1.929-3.657-3.255-5.787-4.26c-0.884-0.402-1.648,0.844-0.764,1.286
		C102.671,76.831,104.318,78.358,106.167,79.724z"/>
	<path style="fill:#CA9E67;" d="M132.569,195.539c0.764,5.305,2.773,17.682,0.603,27.045c-4.621-3.858-9.926-6.631-15.592-8.318
		c1.969-4.421,3.697-8.921,6.189-13.06c2.25-3.737,5.264-6.108,8.238-8.921C132.167,193.369,132.408,194.454,132.569,195.539z"/>
	<path style="fill:#CA9E67;" d="M132.087,225.799c0,0.04,0.04,0.04,0.08,0.04c-2.572,6.631-8.158,10.649-19.369,7.234
		c-5.626-4.019-8.479-10.971-9.886-18.887c4.541,1.005,9.243,1.286,13.703,2.692C122.482,218.686,127.465,221.781,132.087,225.799z"
		/>
	<path style="fill:#CA9E67;" d="M129.274,177.697c0.764,3.617,1.447,7.233,2.09,10.89c-3.456,1.206-6.309,3.978-8.6,7.394
		c-2.21-4.42-6.631-7.836-11.573-10.167c0.08-1.889,2.09-4.34,2.893-5.706c1.165-2.009,2.331-4.059,3.536-6.028
		c2.13-3.456,4.702-7.716,8.921-8.479C127.505,169.62,128.43,173.638,129.274,177.697z M121.397,174.241
		c0.402-0.924-1.005-1.326-1.487-0.643c-1.407,1.889-2.451,3.978-3.456,6.068c-0.522,1.005,0.884,1.848,1.487,0.884
		C119.267,178.501,120.513,176.491,121.397,174.241z"/>
	<path style="fill:#1D1D1B;" d="M126.219,77.233c0.522,0.763-0.643,1.567-1.246,0.965c-1.969-2.09-4.219-3.536-7.073-3.978
		c-0.884-0.161-0.683-1.648,0.201-1.567C121.397,73.054,124.291,74.46,126.219,77.233z"/>
	<path style="fill:#1D1D1B;" d="M125.737,81.452c0.643,0.563-0.241,1.688-0.924,1.206c-1.407-0.924-2.733-1.969-4.059-2.974
		c-0.764-0.603-0.04-1.929,0.804-1.326C122.964,79.363,124.371,80.367,125.737,81.452z"/>
	<path style="fill:#CA9E67;" d="M122.281,149.487c1.246,4.139,2.331,8.359,3.376,12.578c-2.813,0.563-5.023,2.25-6.872,4.34
		c-1.969-2.893-5.706-4.943-9.564-6.028c1.607-3.617,2.17-7.796,4.179-11.373c1.728-3.094,4.139-5.385,6.389-7.876
		C120.674,143.941,121.478,146.754,122.281,149.487z M115.731,152.3c0.522-0.884-0.723-1.527-1.326-0.764
		c-0.964,1.326-1.447,2.773-1.648,4.38c-0.08,0.844,1.246,1.005,1.447,0.201C114.566,154.751,115.048,153.545,115.731,152.3z"/>
	<path style="fill:#1D1D1B;" d="M119.91,173.598c0.482-0.683,1.889-0.281,1.487,0.643c-0.884,2.25-2.13,4.26-3.456,6.309
		c-0.603,0.964-2.009,0.12-1.487-0.884C117.459,177.576,118.504,175.487,119.91,173.598z"/>
	<path style="fill:#CA9E67;" d="M120.955,198.232c0.12,0.08,0.241,0.08,0.362,0.12c-2.853,5.023-4.742,10.85-5.907,15.271
		c-4.139-1.045-8.439-1.527-12.779-1.406c-1.246-8.881-0.804-18.727-0.362-27.045c3.175,1.005,6.229,2.371,9.082,4.219
		C115.128,191.883,117.58,195.339,120.955,198.232z M114.927,199.759c0.563,0.683,1.728-0.241,1.246-0.964
		c-1.889-2.934-4.983-5.144-8.6-5.345c-0.884-0.04-1.005,1.286-0.201,1.527C110.426,195.901,112.918,197.227,114.927,199.759z
		 M114.164,204.541c0.522,0.442,1.206-0.201,0.764-0.723c-1.688-2.009-3.858-3.255-6.229-4.26c-0.563-0.241-0.965,0.723-0.402,1.005
		C110.426,201.608,112.315,203.054,114.164,204.541z"/>
	<path style="fill:#1D1D1B;" d="M119.508,38.655c0.844,0.563,0.121,1.929-0.804,1.366c-2.291-1.326-4.983-1.366-7.274,0.04
		c-0.844,0.563-1.567-0.764-0.764-1.326C113.36,36.886,116.816,36.766,119.508,38.655z"/>
	<path style="fill:#1D1D1B;" d="M117.338,53.041c0.603-0.964,2.009-0.121,1.487,0.844c-1.045,2.049-2.451,3.577-4.3,4.862
		c-0.844,0.563-1.849-0.764-1.085-1.406C114.967,56.135,116.294,54.689,117.338,53.041z"/>
	<path style="fill:#CA9E67;" d="M117.017,168.695c-0.804,1.206-1.567,2.451-2.291,3.697c-1.969,3.456-4.581,7.354-5.706,11.252
		c-0.161,0.402-0.241,0.804-0.281,1.125c-2.13-0.804-4.3-1.406-6.349-1.849c0.161-2.853,0.281-5.465,0.322-7.756
		c0.12-4.42,0.161-8.881,0.201-13.301c2.371,0.523,4.702,1.125,6.952,2.21C112.476,165.32,114.525,167.369,117.017,168.695z"/>
	<path style="fill:#CA9E67;" d="M114.204,124.33c1.607,4.34,3.094,8.72,4.461,13.06c-1.286,0.884-2.612,2.09-3.858,3.496
		c-1.768-1.487-4.501-3.295-7.233-4.34c0.482-2.813,1.366-5.506,2.893-7.997C111.511,126.862,112.838,125.576,114.204,124.33z"/>
	<path style="fill:#1D1D1B;" d="M116.173,198.795c0.482,0.723-0.683,1.648-1.246,0.964c-2.009-2.532-4.501-3.858-7.555-4.782
		c-0.804-0.241-0.683-1.567,0.201-1.527C111.19,193.651,114.284,195.861,116.173,198.795z"/>
	<path style="fill:#1D1D1B;" d="M114.405,151.536c0.603-0.764,1.849-0.12,1.326,0.764c-0.683,1.246-1.165,2.451-1.527,3.818
		c-0.201,0.804-1.527,0.643-1.447-0.201C112.958,154.309,113.44,152.862,114.405,151.536z"/>
	<path style="fill:#1D1D1B;" d="M114.927,203.818c0.442,0.522-0.241,1.165-0.764,0.723c-1.848-1.487-3.737-2.934-5.867-3.978
		c-0.563-0.281-0.161-1.246,0.402-1.005C111.069,200.563,113.239,201.808,114.927,203.818z"/>
	<path style="fill:#1D1D1B;" d="M113.762,33.631c1.085,0.442,0.683,2.17-0.522,1.808c-3.134-0.924-6.349-0.643-9.082,1.286
		c-0.683,0.442-1.487-0.603-0.884-1.125C106.207,33.109,110.105,32.145,113.762,33.631z"/>
	<path style="fill:#CA9E67;" d="M112.958,120.915c-0.603,0.402-1.165,0.884-1.688,1.407c-1.165-2.049-3.777-3.536-5.827-4.3
		c-0.322-0.121-0.683-0.241-1.005-0.321c-0.08-2.532,0-4.983,0.522-7.515c0.281-1.407,0.764-2.773,1.246-4.099
		C108.739,110.868,110.949,115.811,112.958,120.915z"/>
	<path style="fill:#CA9E67;" d="M107.935,140.284c1.728,0.924,3.255,2.049,4.702,3.295c-3.576,4.983-6.188,11.453-5.586,16.315
		c-1.407-0.281-2.853-0.402-4.179-0.402c0-6.952-0.241-13.904-0.964-20.856C103.715,138.114,106.729,139.681,107.935,140.284z
		 M108.337,145.669c0.964,0.322,1.407-1.286,0.402-1.527c-1.165-0.322-1.969-0.844-2.692-1.768
		c-0.482-0.643-1.567,0.201-1.125,0.844C105.805,144.463,106.89,145.227,108.337,145.669z"/>
	<path style="fill:#1D1D1B;" d="M108.739,144.142c1.005,0.241,0.563,1.849-0.402,1.527c-1.447-0.442-2.532-1.206-3.416-2.451
		c-0.442-0.643,0.643-1.487,1.125-0.844C106.77,143.298,107.573,143.821,108.739,144.142z"/>
	<path style="fill:#1D1D1B;" d="M107.171,78.68c0.442,0.603-0.402,1.447-1.005,1.045c-1.849-1.366-3.496-2.893-5.546-4.019
		c-0.884-0.442-0.121-1.688,0.764-1.286C103.515,75.425,105.765,76.751,107.171,78.68z"/>
	<path style="fill:#33AA6C;" d="M111.19,17.798c-2.009,1.366-3.818,3.054-5.626,4.662c-2.612-2.853-8.479-3.054-11.855-3.777
		c-1.607-0.362-2.893,1.567-1.648,2.813c2.532,2.492,5.023,5.063,7.675,7.475C88.524,33.351,79,42.112,74.379,53.163
		c-2.09-1.286-4.581-1.848-7.033-1.406c-0.763,0.161-1.487,0.442-2.17,0.804c0.04-0.121,0.08-0.241,0.04-0.402
		c-0.844-3.697-3.014-6.349-5.867-8.278C63.007,16.874,87.923,1.885,111.19,17.798z M96.804,15.427
		c0.683,0.121,1.206-0.844,0.522-1.206c-2.291-1.206-4.581-1.286-7.113-0.764c-1.045,0.241-0.603,1.808,0.482,1.648
		C92.745,14.784,94.794,15.025,96.804,15.427z M86.918,29.975c0.723-0.08,0.763-1.125,0-1.165c-2.331-0.04-4.38,0.643-6.349,1.969
		c-0.643,0.442-0.04,1.487,0.603,1.045C82.939,30.698,84.868,30.095,86.918,29.975z M83.301,35.279
		c0.563-0.563-0.241-1.366-0.844-0.844c-1.407,1.246-2.733,2.612-4.019,3.978c-0.522,0.482,0.241,1.206,0.723,0.764
		C80.609,37.891,82.015,36.645,83.301,35.279z"/>
	<path style="fill:#CA9E67;" d="M109.422,124.531c-2.371,3.295-3.737,7.515-3.818,11.453c-1.447-0.322-2.813-0.322-3.978,0.161
		c-0.161-1.165-0.241-2.291-0.442-3.456c-0.643-4.541-1.567-8.921-2.733-13.221c2.009,0.161,3.978,0.522,5.827,1.326
		C106.287,121.718,107.654,123.406,109.422,124.531z"/>
	<path style="fill:#CA9E67;" d="M104.318,102.63c-0.201,0.362-0.322,0.804-0.482,1.165c-2.17-1.447-4.702-2.29-7.274-2.612
		c-0.522-3.335-0.442-6.189,0.563-9.122C99.777,95.357,102.148,98.893,104.318,102.63z"/>
	<path style="fill:#CA9E67;" d="M102.43,106.247c0.161,0.08,0.281,0.12,0.402,0.161c-0.964,3.496-1.085,7.354-0.482,10.81
		c-1.487-0.201-3.014-0.161-4.501,0.241c-1.407-4.903-3.175-9.645-5.345-14.186C96.08,103.153,99.416,104.037,102.43,106.247z"/>
	<path style="fill:#1D1D1B;" d="M97.487,235.564c0.764,0.12,0.844,1.326,0,1.286c-3.375-0.161-6.188-2.09-7.274-5.345
		c-0.201-0.603,0.723-0.964,1.005-0.442C92.544,233.475,94.754,235.203,97.487,235.564z"/>
	<path style="fill:#1D1D1B;" d="M97.527,229.255c0.603,0.522-0.201,1.527-0.884,1.125c-2.492-1.607-3.818-4.179-3.938-7.113
		c-0.04-0.964,1.326-0.924,1.407,0C94.352,225.719,95.638,227.688,97.527,229.255z"/>
	<path style="fill:#1D1D1B;" d="M97.326,14.222c0.683,0.362,0.161,1.326-0.522,1.206c-2.009-0.402-4.059-0.643-6.108-0.321
		c-1.085,0.161-1.527-1.406-0.482-1.648C92.745,12.936,95.035,13.016,97.326,14.222z"/>
	<path style="fill:#CA9E67;" d="M94.754,90.173c-1.366,3.376-1.607,7.434-0.322,10.85c-0.964,0.04-1.969,0.121-2.893,0.362
		c-1.929-3.777-4.179-7.434-6.671-10.93c1.567-0.402,3.054-1.005,4.742-1.085C91.459,89.248,93.026,89.811,94.754,90.173z"/>
	<path style="fill:#CA9E67;" d="M92.463,86.717c-3.094-0.281-6.59,0.563-8.6,2.411c-1.808-2.411-3.777-4.822-5.948-7.073
		c-0.08-0.121-0.161-0.121-0.241-0.201c0.482-0.884,0.884-1.768,1.206-2.773c1.648,1.607,4.26,1.768,6.47,1.165
		c0.04,0.04,0.04,0.04,0.08,0.08C87.963,82.256,90.253,84.426,92.463,86.717z"/>
	<path style="fill:#683C11;" d="M79.202,64.213c4.742-1.125,9.765,1.808,9.685,7.032c-0.08,4.822-4.662,7.796-8.72,5.063
		c-0.281-0.161-0.563-0.241-0.804-0.241c0.121-2.853-0.603-6.108-2.21-8.399c0.924-0.924,1.487-2.17,1.808-3.496
		C79.041,64.173,79.122,64.253,79.202,64.213z M84.909,69.839c1.688,0,1.688-2.612,0-2.612
		C83.261,67.227,83.261,69.839,84.909,69.839z M84.587,72.049c0.04-2.13-3.376-2.13-3.335,0c0,0.321,0.04,0.683,0.04,1.005
		c0.04,2.09,3.215,2.09,3.255,0C84.547,72.732,84.587,72.37,84.587,72.049z M80.408,69.557c1.969,0,1.969-3.054,0-3.054
		S78.439,69.557,80.408,69.557z"/>
	<path style="fill:#1D1D1B;" d="M86.918,28.809c0.763,0.04,0.723,1.085,0,1.165c-2.049,0.121-3.978,0.723-5.747,1.848
		c-0.643,0.442-1.246-0.603-0.603-1.045C82.538,29.452,84.587,28.769,86.918,28.809z"/>
	<path style="fill:#1D1D1B;" d="M81.895,54.849c2.492,0.12,4.501,2.049,4.3,4.621c-0.08,0.603-0.924,0.603-0.965,0
		c-0.12-1.889-1.406-3.416-3.335-3.576C81.252,55.854,81.211,54.809,81.895,54.849z"/>
	<path style="fill:#1D1D1B;" d="M84.909,67.227c1.688,0,1.688,2.612,0,2.612C83.261,69.839,83.261,67.227,84.909,67.227z"/>
	<path style="fill:#1D1D1B;" d="M81.252,72.049c-0.04-2.13,3.376-2.13,3.335,0c0,0.321-0.04,0.683-0.04,1.005
		c-0.04,2.09-3.215,2.09-3.255,0C81.292,72.732,81.252,72.37,81.252,72.049z"/>
	<path style="fill:#1D1D1B;" d="M82.457,34.435c0.603-0.522,1.407,0.281,0.844,0.844c-1.286,1.366-2.692,2.612-4.139,3.898
		c-0.482,0.442-1.246-0.281-0.723-0.764C79.725,37.047,81.051,35.681,82.457,34.435z"/>
	<path style="fill:#1D1D1B;" d="M80.408,66.503c1.969,0,1.969,3.054,0,3.054S78.439,66.503,80.408,66.503z"/>
	<path style="fill:#683C11;" d="M70.08,67.428c5.706,1.045,7.153,6.189,5.345,11.292c-1.768,5.104-7.354,6.791-11.131,2.532
		c-1.045-1.165-1.607-2.371-1.929-3.576c0.201-0.322,0.08-0.764-0.241-0.924c-0.563-4.34,3.134-8.278,7.635-9.484
		C69.879,67.307,69.919,67.428,70.08,67.428z M71.527,76.067c0.201-2.17-3.536-2.17-3.335,0c0,0.161,0.04,0.321,0.04,0.522
		c0.201,2.09,3.054,2.09,3.255,0C71.487,76.389,71.527,76.228,71.527,76.067z M70.361,73.656c2.049,0,2.049-3.215,0-3.215
		S68.312,73.656,70.361,73.656z M65.378,75.746c2.853,0.563,2.853-3.938,0-3.376c-0.161,0-0.321,0.04-0.482,0.08
		c-1.607,0.321-1.607,2.893,0,3.215C65.057,75.706,65.218,75.746,65.378,75.746z"/>
	<path style="fill:#683C11;" d="M75.224,58.788c1.286,2.532,0.442,4.501-0.362,6.711c-1.326-0.723-2.893-0.924-4.782-0.402
		c-0.04,0-0.04,0.04-0.08,0.04c-1.648-0.12-3.295,0.161-4.822,0.804c-3.858-3.657-2.451-10.368,3.456-10.89
		C71.326,54.809,74.018,56.417,75.224,58.788z M70.361,63.007c1.929,0,1.929-3.014,0-3.014S68.432,63.007,70.361,63.007z"/>
	<path style="fill:#33AA6C;" d="M73.014,137.632c-0.482,2.612-0.643,5.063-0.402,7.675c-17.762,0.603-32.711-10.81-33.917-29.295
		c-0.964-15.029,6.189-31.385,20.454-37.132c0.965,3.175,3.094,5.988,6.068,7.434c1.487,0.723,2.934,1.005,4.3,1.005
		c-0.241,3.014,0.241,5.144,1.768,7.474c-0.804,0.884-1.808,1.527-1.929,3.014c-0.121,1.165,0.281,2.09,0.924,2.934
		c-0.643,0.121-1.286,0.281-1.929,0.442c-1.125,0.281-1.527,1.808-0.683,2.612c0.563,0.563,2.692,2.893,3.496,3.175
		c-1.045,0.121-4.943,0.764-5.747,0.884c-1.326,0.201-1.206,1.929-0.362,2.532c0.763,0.522,4.34,2.692,5.867,4.3
		c-0.362,3.376-0.08,6.148-2.17,9.082c-0.322,0.482-0.241,1.125,0,1.607c0.442,0.884,1.045,1.648,1.688,2.371
		c-3.657,0.482-7.274,0.522-11.011,0.121c-1.648-0.201-2.13,2.25-0.844,2.974C63.208,133.493,68.031,135.783,73.014,137.632z
		 M67.066,97.647c0.161-1.969,0-4.019-0.04-6.028c0-0.884-1.366-0.884-1.366,0c-0.04,2.009-0.201,4.059-0.04,6.028
		C65.7,98.571,66.986,98.571,67.066,97.647z M47.013,111.431c0.241-0.844-1.045-1.407-1.447-0.603
		c-1.286,2.532-1.567,5.425-0.523,8.118c0.362,1.005,1.808,0.643,1.567-0.442C46.129,116.052,46.21,113.842,47.013,111.431z
		 M42.834,123.527c0.362,1.125,2.09,0.683,1.728-0.482c-0.764-2.612-1.206-5.304-1.567-7.997c-0.121-0.884-1.487-0.643-1.527,0.201
		C41.387,118.102,41.91,120.834,42.834,123.527z"/>
	<path style="fill:#1D1D1B;" d="M68.191,76.067c-0.201-2.17,3.536-2.17,3.335,0c0,0.161-0.04,0.321-0.04,0.522
		c-0.201,2.09-3.054,2.09-3.255,0C68.232,76.389,68.191,76.228,68.191,76.067z"/>
	<path style="fill:#1D1D1B;" d="M70.361,70.441c2.049,0,2.049,3.215,0,3.215S68.312,70.441,70.361,70.441z"/>
	<path style="fill:#1D1D1B;" d="M70.361,59.993c1.929,0,1.929,3.014,0,3.014S68.432,59.993,70.361,59.993z"/>
	<path style="fill:#1D1D1B;" d="M67.026,91.619c0.04,2.009,0.201,4.059,0.04,6.028c-0.08,0.924-1.366,0.924-1.447,0
		c-0.161-1.969,0-4.019,0.04-6.028C65.66,90.735,67.026,90.735,67.026,91.619z"/>
	<path style="fill:#1D1D1B;" d="M65.378,72.37c2.853-0.563,2.853,3.938,0,3.376c-0.161,0-0.321-0.04-0.482-0.08
		c-1.607-0.322-1.607-2.893,0-3.215C65.057,72.411,65.218,72.37,65.378,72.37z"/>
	<path style="fill:#33AA6C;" d="M63.932,52.921c0.121,0.08,0.201,0.121,0.321,0.161c-4.983,3.134-6.51,10.73-1.607,14.266
		c-1.286,1.005-2.411,2.331-3.094,3.898c-0.804,1.768-1.005,3.697-0.804,5.586c-5.546,0.723-10.127,3.657-13.703,7.796
		c-5.425-0.924-11.172-2.291-14.306,1.808c-3.014-4.059-6.068-8.077-9.042-12.176c-0.965-1.286-3.335-1.005-3.295,0.924
		c0.121,4.621,0.241,9.283,0.402,13.904c-0.723-0.563-1.406-1.165-2.09-1.728c-0.884-0.723-2.049-0.603-2.692,0.362
		c-2.17,3.175-4.26,5.787-6.711,8.439c-5.264-16.275-7.233-35.765,9.725-46.053C31.381,41.347,51.474,41.186,63.932,52.921z
		 M55.493,50.951c0.764,0.402,1.406-0.723,0.683-1.125c-1.929-1.045-3.898-1.246-6.028-0.804c-0.522,0.08-0.442,1.005,0.121,0.964
		C52.157,49.746,53.805,50.108,55.493,50.951z M48.42,76.188c0.764-0.281,0.482-1.407-0.321-1.246
		c-1.206,0.281-2.371,0.643-3.536,1.045c-0.723,0.241-0.442,1.366,0.362,1.165C46.089,76.871,47.255,76.55,48.42,76.188z
		 M13.539,64.936c0.522-0.522-0.201-1.487-0.804-1.045C9.239,66.383,7.591,70.28,7.953,74.54c0.08,0.884,1.366,0.884,1.366,0
		C9.279,70.884,10.927,67.468,13.539,64.936z M8.435,68.553c0.241-0.563-0.643-1.045-1.005-0.603
		c-2.411,2.813-2.934,6.711-2.09,10.207c0.161,0.643,1.246,0.522,1.206-0.161C6.305,74.581,7.149,71.687,8.435,68.553z"/>
	<path style="fill:#1D1D1B;" d="M55.694,249.75c0.643-0.764,1.969,0.281,1.366,1.085c-1.407,1.929-2.451,3.938-2.934,6.309
		c-0.241,1.085-1.889,0.603-1.688-0.482C52.921,254.05,53.925,251.759,55.694,249.75z"/>
	<path style="fill:#1D1D1B;" d="M56.176,49.826c0.723,0.402,0.08,1.527-0.683,1.125c-1.688-0.844-3.335-1.206-5.224-0.965
		c-0.563,0.04-0.643-0.884-0.121-0.964C52.278,48.58,54.247,48.781,56.176,49.826z"/>
	<path style="fill:#1D1D1B;" d="M50.751,248.062c0.442-0.723,1.487-0.08,1.125,0.643c-1.688,3.134-3.094,6.43-4.019,9.886
		c-0.241,0.884-1.648,0.522-1.407-0.402C47.295,254.532,48.661,251.197,50.751,248.062z"/>
	<path style="fill:#1D1D1B;" d="M48.099,74.942c0.804-0.161,1.085,0.965,0.321,1.246c-1.165,0.362-2.331,0.683-3.496,0.964
		c-0.804,0.201-1.085-0.924-0.362-1.165C45.728,75.585,46.893,75.224,48.099,74.942z"/>
	<path style="fill:#1D1D1B;" d="M45.567,110.828c0.402-0.804,1.688-0.241,1.447,0.603c-0.804,2.411-0.884,4.621-0.402,7.073
		c0.241,1.085-1.206,1.447-1.567,0.442C44,116.253,44.281,113.36,45.567,110.828z"/>
	<path style="fill:#1D1D1B;" d="M44.562,123.045c0.362,1.165-1.366,1.607-1.728,0.482c-0.924-2.692-1.447-5.425-1.366-8.278
		c0.04-0.844,1.407-1.085,1.527-0.201C43.357,117.74,43.799,120.432,44.562,123.045z"/>
	<path style="fill:#1D1D1B;" d="M12.735,63.891c0.603-0.442,1.326,0.522,0.804,1.045c-2.612,2.532-4.26,5.947-4.22,9.604
		c0,0.884-1.286,0.884-1.366,0C7.591,70.281,9.239,66.383,12.735,63.891z"/>
	<path style="fill:#1D1D1B;" d="M7.431,67.95c0.362-0.442,1.246,0.04,1.005,0.603c-1.286,3.134-2.13,6.028-1.889,9.444
		c0.04,0.683-1.045,0.804-1.206,0.161C4.497,74.661,5.019,70.763,7.431,67.95z"/>
</g>
</svg>